<?xml version="1.0" encoding="UTF-8"?>
<svg version="1.1" xmlns="http://www.w3.org/2000/svg" width="606" height="329">
<path d="M0 0 C137.28 0 274.56 0 416 0 C416 9.24 416 18.48 416 28 C411.42125 28.515625 406.8425 29.03125 402.125 29.5625 C353.45361865 35.4670294 299.9572332 47.69822069 261 79 C260.41428223 79.46374023 259.82856445 79.92748047 259.22509766 80.40527344 C239.37462304 96.2581198 223.34961069 118.66252391 220.2109375 144.52685547 C218.79834659 161.08882994 219.43686063 177.76232024 223 194 C223.40025391 195.91039062 223.40025391 195.91039062 223.80859375 197.859375 C227.34310008 212.75142833 233.79518701 226.76774852 243 239 C243.69867188 239.93199219 244.39734375 240.86398438 245.1171875 241.82421875 C264.78687252 266.9188169 294.14382401 280.40468412 325.0703125 285.45703125 C328 286 328 286 329 287 C329 297.23 329 307.46 329 318 C207.56 318 86.12 318 -39 318 C-39 287 -39 287 -38 286 C-36.17875004 285.70321953 -34.35630497 285.4125536 -32.52954102 285.15185547 C-4.61029269 281.10643118 24.62608059 270.30085511 42.82421875 247.73828125 C56.78119594 228.93723388 60.68778022 206.51421037 57.68652344 183.60742188 C54.48229147 165.79156435 44.27087267 150.74611761 29.62890625 140.34765625 C6.5573634 124.91812705 -21.23642114 121.17062646 -48.32202148 120.40625 C-85.7769309 119.20600366 -118.67247646 106.78921924 -146 81 C-146.73734375 80.32710938 -147.4746875 79.65421875 -148.234375 78.9609375 C-162.16631843 65.7700549 -171.59930318 48.78713229 -179.5 31.5 C-180.00793091 30.40594849 -180.00793091 30.40594849 -180.52612305 29.28979492 C-180.83718994 28.5857251 -181.14825684 27.88165527 -181.46875 27.15625 C-181.87770508 26.24069336 -181.87770508 26.24069336 -182.29492188 25.30664062 C-183.31285594 21.97650175 -183.56808094 18.45535246 -184 15 C-123.28 15 -62.56 15 0 15 C0 10.05 0 5.1 0 0 Z " fill="#000000" transform="translate(186,7)"/>
</svg>
