<?xml version="1.0" standalone="no"?>
<!DOCTYPE svg PUBLIC "-//W3C//DTD SVG 20010904//EN"
 "http://www.w3.org/TR/2001/REC-SVG-20010904/DTD/svg10.dtd">
<svg version="1.0" xmlns="http://www.w3.org/2000/svg"
 width="318.000000pt" height="357.000000pt" viewBox="0 0 318.000000 357.000000"
 preserveAspectRatio="xMidYMid meet">

<g transform="translate(0.000000,357.000000) scale(0.100000,-0.100000)"
fill="#000000" stroke="none">
<path d="M1557 3509 c7 -7 15 -10 18 -7 3 3 -2 9 -12 12 -14 6 -15 5 -6 -5z"/>
<path d="M1354 3365 c-28 -14 -64 -40 -79 -57 l-29 -32 -8 32 c-5 18 -11 32
-14 32 -3 0 -22 -13 -42 -29 -40 -32 -79 -44 -75 -23 2 6 0 12 -3 12 -8 0 -34
-27 -34 -37 0 -4 -32 -28 -71 -53 -39 -24 -66 -46 -60 -48 19 -6 12 -22 -10
-22 -11 0 -30 -6 -42 -12 -12 -7 -31 -13 -42 -13 -14 0 -22 -11 -30 -38 -6
-21 -13 -35 -17 -32 -3 4 -14 -7 -24 -24 -10 -17 -24 -31 -31 -31 -7 0 -22
-13 -34 -30 -12 -16 -27 -26 -32 -23 -6 3 -7 1 -3 -6 4 -6 2 -18 -4 -26 -10
-11 -10 -15 -1 -15 7 0 9 -5 6 -10 -4 -6 -15 -8 -24 -5 -12 3 -22 -3 -31 -20
-7 -14 -17 -25 -21 -25 -5 0 -6 -6 -3 -13 2 -7 -15 -36 -38 -64 -24 -28 -55
-66 -70 -84 l-28 -34 26 47 c14 26 23 52 19 58 -9 15 -27 1 -21 -17 3 -8 1
-19 -4 -26 -6 -7 -24 -32 -41 -56 -22 -31 -33 -40 -39 -31 -6 9 -13 3 -25 -21
-12 -22 -14 -34 -6 -37 7 -2 5 -14 -6 -35 -9 -18 -18 -36 -19 -42 -1 -5 -7
-23 -13 -39 l-12 -29 -20 22 c-27 29 -42 16 -42 -38 0 -23 -3 -41 -8 -41 -4 0
-16 -27 -25 -61 -10 -35 -20 -55 -24 -48 -12 19 -28 -19 -40 -95 -6 -37 -16
-75 -22 -85 -7 -11 -8 -26 -3 -37 11 -25 13 -64 3 -58 -13 8 -9 -12 12 -67 16
-39 18 -54 9 -60 -8 -5 -5 -10 10 -18 25 -14 30 -46 4 -37 -9 4 -20 1 -25 -6
-5 -8 -8 -2 -8 17 0 17 -5 37 -10 45 -6 10 -9 -3 -9 -42 1 -32 5 -58 10 -58 5
0 9 5 9 12 0 6 2 9 5 6 4 -3 3 -18 -1 -33 l-7 -27 -28 45 c-25 40 -49 66 -49
54 0 -6 21 -46 41 -77 9 -14 27 -67 40 -117 13 -51 27 -93 31 -93 10 0 10 15
-1 61 -5 21 -5 43 0 50 7 11 9 11 9 1 0 -7 5 -10 11 -7 7 5 5 13 -6 25 -9 10
-19 42 -22 70 -6 67 12 59 21 -9 5 -36 10 -49 20 -45 15 6 29 -33 16 -41 -5
-3 2 -17 15 -30 18 -20 23 -37 22 -76 0 -33 5 -54 14 -60 8 -5 9 -9 4 -9 -6 0
-18 9 -28 20 -13 16 -21 18 -36 10 -15 -7 -19 -20 -19 -55 1 -25 5 -45 9 -45
4 0 21 -29 38 -65 25 -55 34 -65 55 -65 16 0 26 -6 26 -14 0 -8 3 -23 6 -33 3
-10 -2 -6 -11 10 -8 15 -20 27 -24 27 -14 0 0 -81 20 -117 13 -23 15 -33 6
-36 -8 -2 -2 -18 16 -45 15 -24 22 -42 15 -42 -6 0 1 -13 17 -30 16 -16 25
-33 21 -37 -4 -4 -16 3 -28 17 -26 33 -12 4 19 -38 20 -26 23 -40 18 -70 -5
-34 -3 -39 25 -55 16 -10 35 -15 40 -12 6 3 10 -1 10 -9 0 -9 6 -16 14 -16 8
0 18 -5 22 -12 5 -7 3 -8 -7 -3 -8 5 -6 -1 5 -13 10 -11 38 -52 61 -89 58 -90
65 -99 76 -82 4 7 5 17 2 22 -3 5 -9 4 -13 -3 -5 -9 -9 -9 -14 -1 -4 6 1 14
11 18 10 3 22 8 27 11 5 3 6 0 2 -6 -4 -8 0 -12 11 -12 10 0 45 -25 78 -55 33
-30 68 -57 78 -61 9 -3 14 -10 11 -16 -4 -7 -2 -8 5 -4 6 4 19 2 27 -5 11 -9
12 -14 3 -19 -8 -5 -5 -14 10 -29 25 -25 35 -27 27 -4 -6 16 -6 16 12 0 26
-24 39 -21 17 3 -24 27 -9 25 29 -3 52 -38 108 -68 120 -64 7 3 20 -1 31 -9
10 -8 28 -14 39 -14 18 0 18 2 6 14 -8 8 -49 32 -90 53 -114 59 -370 256 -370
286 0 18 45 1 55 -21 5 -12 13 -22 18 -22 4 0 5 5 1 12 -4 7 -3 8 5 4 6 -4 9
-11 7 -15 -3 -4 13 -18 35 -30 22 -13 45 -32 52 -43 12 -19 143 -113 175 -125
9 -4 51 -26 92 -50 105 -62 108 -63 127 -63 13 0 14 3 5 12 -20 20 -14 28 14
18 35 -14 41 -12 19 3 -29 22 -1 29 39 10 22 -10 36 -24 36 -35 0 -10 5 -18
10 -18 6 0 14 -10 19 -22 7 -19 2 -27 -30 -50 -22 -16 -39 -35 -39 -42 0 -15
50 -56 69 -56 6 0 11 -13 11 -29 0 -23 4 -29 19 -28 11 1 22 10 25 21 4 16 8
17 20 7 9 -8 27 -10 53 -5 l38 7 -30 14 -30 14 40 -6 c56 -8 75 -15 75 -25 0
-5 -8 -6 -17 -3 -16 6 -16 5 -4 -11 14 -17 16 -17 28 0 18 25 12 37 -25 48
-18 5 -32 15 -32 21 0 7 -7 16 -16 19 -9 4 -14 9 -11 12 3 3 15 1 26 -6 47
-24 13 40 -34 66 -23 13 -26 35 -6 42 9 3 11 -1 7 -16 -6 -18 -3 -20 25 -17
38 5 48 13 30 24 -36 22 40 58 137 66 l67 5 -49 -13 c-27 -6 -51 -18 -54 -25
-3 -11 0 -12 17 -3 16 9 26 9 42 0 16 -8 23 -8 29 0 5 10 45 18 98 20 6 1 12
8 12 17 0 11 -6 14 -22 9 -36 -11 -40 -11 -45 3 -3 7 4 12 16 12 12 0 21 4 21
9 0 4 -9 8 -20 7 -11 0 -20 4 -21 9 0 6 41 23 92 38 83 26 94 27 104 13 14
-18 25 -11 25 15 0 11 13 22 38 29 20 7 53 24 72 39 19 14 39 25 43 23 5 -1 5
3 1 9 -5 9 -2 10 9 6 9 -3 19 -2 23 4 3 5 14 7 25 4 14 -5 21 0 28 17 5 13 33
43 63 66 29 22 64 53 78 67 13 14 32 25 42 25 30 0 203 186 254 272 25 43 52
78 59 78 7 0 28 23 45 52 l32 52 16 -39 c19 -49 18 -49 32 -40 8 5 7 12 -4 24
-14 15 -14 19 1 40 12 18 13 25 3 31 -9 5 -11 20 -6 46 8 46 87 234 99 234 5
0 5 -9 2 -20 -7 -23 10 -27 19 -4 3 8 -1 22 -9 30 -18 19 -19 10 6 80 34 100
38 116 43 199 2 44 8 128 12 187 4 58 4 114 -1 125 -4 10 -8 45 -10 78 -2 63
-24 149 -34 139 -3 -3 -6 -9 -7 -12 0 -4 -4 -22 -8 -40 -5 -22 -4 -38 5 -48 6
-8 9 -17 5 -21 -3 -4 -13 2 -21 13 -14 19 -20 49 -16 92 1 12 -3 22 -8 22 -6
0 -16 19 -22 43 -18 62 -20 79 -10 73 5 -4 12 0 15 6 3 7 3 2 0 -11 -4 -17 -2
-22 7 -19 21 7 19 55 -3 78 -10 11 -17 24 -13 29 4 8 -4 8 -35 1 -3 0 6 -9 18
-20 22 -18 22 -21 8 -36 -11 -10 -16 -11 -16 -3 0 7 -2 10 -5 8 -2 -3 3 -34
11 -69 22 -91 33 -163 24 -153 -5 4 -10 17 -13 28 -4 15 -5 13 -6 -7 -1 -29
-15 -38 -24 -15 -3 7 -1 33 3 56 8 46 -3 103 -27 136 -13 18 -14 17 -8 -20 9
-63 14 -112 9 -92 -3 9 -10 15 -15 11 -11 -6 -18 9 -22 51 -4 30 -46 120 -47
98 0 -6 9 -40 20 -75 20 -60 41 -168 33 -168 -2 0 -8 10 -13 23 -6 14 -8 -15
-4 -88 3 -73 1 -103 -5 -90 -5 11 -10 52 -10 91 -1 90 -58 277 -95 312 -14 13
-24 31 -23 42 2 24 17 15 17 -10 0 -10 4 -21 9 -24 10 -7 21 73 12 89 -3 6 -7
21 -9 35 -5 40 -83 167 -82 133 0 -4 12 -26 25 -48 40 -65 28 -62 -15 3 -23
34 -61 84 -86 111 -25 28 -42 51 -38 51 5 0 -2 7 -14 16 -21 15 -32 42 -12 29
16 -10 12 11 -5 25 -13 11 -14 10 -9 -5 5 -12 4 -16 -3 -12 -6 4 -13 20 -17
37 -3 19 -10 29 -16 25 -8 -5 -7 -12 2 -23 12 -15 11 -16 -5 -3 -10 8 -16 22
-14 33 3 10 1 21 -4 24 -5 3 -7 10 -4 15 4 5 0 9 -8 9 -19 0 -27 22 -33 84 -2
28 -8 54 -14 60 -7 7 -10 6 -10 -2 0 -10 -5 -10 -20 -2 -11 6 -24 9 -29 6 -4
-3 -30 9 -57 26 -27 17 -61 32 -76 33 l-27 2 22 -22 c12 -12 39 -42 60 -68 21
-26 43 -47 50 -47 7 0 -4 14 -23 30 -19 16 -30 30 -24 30 6 0 19 -9 29 -20 10
-12 24 -19 31 -16 7 3 18 -1 24 -9 8 -10 7 -16 -7 -23 -10 -6 -14 -14 -10 -18
5 -5 12 -2 16 5 6 10 13 10 28 3 25 -14 49 -42 35 -42 -5 0 -15 7 -22 15 -10
12 -16 13 -27 4 -11 -10 -20 -6 -43 16 -17 16 -33 24 -41 20 -7 -5 -10 -4 -6
2 4 6 0 17 -9 24 -8 7 -14 8 -13 3 4 -22 -2 -33 -16 -28 -8 4 -12 10 -9 15 3
5 3 9 -1 9 -3 0 -9 -10 -14 -22 l-8 -21 -20 20 c-12 12 -30 24 -41 27 -21 7
-51 36 -37 36 5 0 17 -7 27 -17 10 -9 21 -14 24 -10 6 6 -76 63 -87 60 -9 -3
-38 30 -36 40 1 4 -14 18 -33 30 -22 14 -31 16 -23 6 7 -9 9 -20 5 -24 -4 -5
0 -4 8 0 13 8 13 7 1 -8 -7 -9 -9 -17 -4 -17 10 0 83 -65 83 -73 0 -3 -10 -3
-22 0 -18 4 -20 2 -8 -6 8 -5 12 -12 10 -15 -3 -2 -16 5 -30 17 -16 12 -18 18
-7 14 20 -8 23 8 3 16 -8 3 -17 0 -19 -7 -3 -7 49 -67 119 -137 68 -68 124
-128 124 -134 0 -5 -14 6 -31 25 -17 19 -27 28 -23 20 12 -25 46 -60 54 -55 4
2 20 -19 35 -48 16 -29 53 -89 83 -134 29 -46 51 -86 48 -91 -2 -4 3 -16 11
-27 13 -16 15 -17 10 -2 -9 24 0 21 18 -7 18 -27 25 -53 30 -112 3 -23 12 -75
22 -115 21 -89 26 -449 7 -490 -34 -70 -43 -97 -38 -116 4 -13 -5 -46 -20 -79
-15 -31 -24 -59 -21 -62 3 -3 5 -1 5 4 0 6 8 19 19 30 10 11 24 31 31 43 9 17
15 20 23 12 9 -9 8 -17 -1 -32 -12 -19 -11 -19 8 -9 19 10 20 9 14 -17 -4 -15
-25 -71 -46 -123 -41 -102 -46 -125 -23 -94 14 19 14 19 15 -3 0 -12 -6 -23
-12 -26 -7 -3 -2 -4 11 -4 13 1 26 9 28 17 5 18 42 44 50 36 3 -3 0 -13 -8
-22 -11 -14 -10 -16 6 -14 34 4 45 1 45 -12 0 -22 -87 -161 -123 -200 -40 -41
-62 -76 -62 -98 -1 -8 -7 -14 -14 -12 -14 3 -117 -86 -114 -98 1 -5 -9 -11
-22 -14 -14 -4 -24 -12 -22 -18 1 -6 -14 -15 -33 -20 -19 -5 -49 -13 -66 -19
-17 -5 -42 -9 -57 -9 -15 0 -27 -4 -27 -9 0 -5 21 -7 48 -5 26 2 41 1 35 -2
-7 -3 -13 -13 -13 -22 0 -13 -2 -14 -9 -3 -6 9 -11 10 -15 2 -4 -6 -4 -11 1
-11 4 0 -1 -6 -11 -12 -15 -8 -21 -8 -24 0 -2 8 -12 6 -30 -6 -17 -12 -53 -21
-95 -25 -38 -4 -101 -17 -140 -31 -98 -33 -128 -36 -230 -28 -48 4 -91 4 -95
0 -4 -3 -16 0 -27 8 -18 14 -11 15 70 10 86 -6 88 -5 55 9 l-35 15 35 -1 c19
-1 46 0 60 1 l25 1 -25 11 -25 10 25 11 c24 10 23 10 -19 20 -38 9 -46 8 -59
-9 -10 -13 -16 -15 -19 -6 -3 7 -25 12 -61 12 -41 0 -53 3 -42 10 11 7 12 10
2 10 -21 0 -82 31 -82 42 0 5 5 6 10 3 18 -11 212 -16 205 -5 -3 5 1 10 10 10
9 0 14 4 10 9 -3 5 5 12 17 14 15 3 9 5 -14 6 -21 0 -38 6 -38 11 0 6 -6 10
-13 10 -7 0 -22 7 -33 15 -19 15 -19 15 1 8 18 -6 18 -5 6 10 -7 9 -21 17 -30
17 -86 1 -362 165 -433 257 -20 26 -34 50 -32 53 3 2 9 -2 14 -10 5 -8 12 -11
16 -7 4 3 -11 30 -33 59 -22 29 -46 69 -53 88 -8 19 -20 40 -27 45 -7 6 -15
20 -17 32 -3 12 -14 31 -26 43 -12 12 -19 28 -16 36 3 8 -2 32 -11 52 -15 33
-17 35 -20 14 -3 -13 2 -43 11 -68 8 -24 11 -42 6 -39 -5 3 -11 19 -15 35 -4
16 -11 33 -17 36 -7 4 -8 2 -4 -4 4 -7 2 -12 -4 -12 -14 0 -5 -49 12 -65 8 -7
9 -5 3 5 -5 10 -5 12 2 5 6 -5 13 -30 17 -54 6 -36 4 -42 -9 -38 -8 4 -15 2
-15 -4 0 -24 -26 18 -28 45 -2 24 0 27 8 16 16 -25 12 7 -6 45 -8 18 -24 35
-36 38 -11 3 -17 10 -14 16 4 5 1 13 -5 17 -8 5 -8 8 0 14 7 4 13 18 15 31 1
14 6 30 10 37 4 7 2 12 -6 12 -19 0 -18 205 0 238 8 13 10 27 6 30 -4 4 -9 2
-11 -4 -2 -6 -10 -20 -18 -30 -15 -18 -15 -18 -9 1 4 11 14 28 21 37 8 9 12
22 7 29 -4 7 -3 10 3 6 6 -4 13 2 16 13 3 12 1 18 -5 14 -6 -4 -9 -3 -6 2 2 5
12 27 22 48 19 42 95 145 81 111 -4 -11 -10 -33 -12 -50 l-4 -30 14 30 c8 17
27 41 42 55 l28 25 -25 -40 c-27 -43 -43 -98 -39 -128 1 -10 -3 -25 -9 -33 -7
-8 -8 -14 -3 -14 10 0 63 62 80 95 6 11 13 31 14 45 2 14 8 28 13 31 5 4 5 13
0 20 -11 18 -12 60 -3 84 7 18 8 18 8 2 1 -10 6 -15 11 -12 6 3 7 17 4 29 -4
19 4 31 43 62 69 57 151 108 206 129 26 10 47 23 47 30 0 7 42 24 100 40 144
39 203 85 255 197 20 43 25 69 25 139 0 76 -4 93 -30 146 -35 69 -98 133 -165
165 -25 12 -45 26 -45 30 0 4 18 11 40 14 46 8 53 21 13 26 -23 2 -29 8 -31
36 -4 40 -20 41 -88 7z m-49 -85 c-3 -5 -11 -10 -16 -10 -6 0 -7 5 -4 10 3 6
11 10 16 10 6 0 7 -4 4 -10z m-185 -84 c0 -3 -4 -8 -10 -11 -5 -3 -10 -1 -10
4 0 6 5 11 10 11 6 0 10 -2 10 -4z m-60 -26 c-46 -25 -73 -25 -35 0 17 11 39
20 50 20 15 -1 11 -6 -15 -20z m-75 -38 c-21 -18 -105 -62 -105 -55 1 11 82
62 100 63 8 0 10 -3 5 -8z m1130 -23 c19 -17 35 -38 35 -47 0 -11 -8 -8 -31
14 -30 28 -55 64 -45 64 3 0 21 -14 41 -31z m119 -54 c-3 -8 1 -12 11 -12 9 1
24 -9 33 -23 l16 -25 -24 22 c-14 12 -29 22 -35 23 -5 0 -10 6 -10 13 0 6 -5
19 -10 27 -7 13 -6 13 7 2 9 -8 15 -19 12 -27z m37 8 c13 -16 12 -17 -3 -4
-10 7 -18 15 -18 17 0 8 8 3 21 -13z m40 -5 c22 -28 25 -45 3 -28 -17 15 -38
50 -28 50 3 0 14 -10 25 -22z m-1479 -40 c-7 -7 -12 -8 -12 -2 0 14 12 26 19
19 2 -3 -1 -11 -7 -17z m1573 2 c27 -29 15 -32 -20 -4 -20 16 -25 24 -14 24 9
0 24 -9 34 -20z m-1614 -31 c-31 -25 -47 -25 -21 1 11 11 20 25 20 32 0 9 3 9
13 -1 10 -10 7 -16 -12 -32z m-54 -41 c-3 -8 -6 -5 -6 6 -1 11 2 17 5 13 3 -3
4 -12 1 -19z m-27 -33 c-7 -9 -15 -13 -17 -11 -7 7 7 26 19 26 6 0 6 -6 -2
-15z m1761 -9 c21 -1 32 -14 75 -91 l17 -30 -22 19 c-15 14 -21 15 -21 5 0 -7
-8 -2 -17 11 -9 14 -22 30 -28 36 -30 34 -45 56 -45 67 0 8 3 8 9 -2 5 -7 19
-14 32 -15z m139 -156 c6 -11 8 -20 6 -20 -3 0 -10 9 -16 20 -6 11 -8 20 -6
20 3 0 10 -9 16 -20z m60 -101 c0 -6 -4 -7 -10 -4 -5 3 -10 11 -10 16 0 6 5 7
10 4 6 -3 10 -11 10 -16z m-2377 -279 c-7 -28 -13 -25 -13 6 0 14 4 23 9 20 5
-3 7 -15 4 -26z m2507 -102 c7 -22 6 -28 -6 -28 -10 0 -14 12 -13 43 0 23 3
35 6 27 2 -8 8 -27 13 -42z m110 8 c0 -3 -4 -8 -10 -11 -5 -3 -10 -1 -10 4 0
6 5 11 10 11 6 0 10 -2 10 -4z m-2671 -33 c0 -5 -4 -17 -9 -28 -8 -18 -9 -17
-9 8 -1 15 4 27 9 27 6 0 10 -3 9 -7z m581 -12 c0 -5 -9 -19 -20 -32 l-21 -24
16 33 c15 31 25 41 25 23z m-45 -88 c-3 -14 -13 -36 -22 -47 -15 -21 -15 -21
-8 4 7 30 27 70 33 70 2 0 1 -12 -3 -27z m1885 -130 c0 -55 -12 -95 -22 -77
-3 5 -5 24 -3 42 1 17 2 46 3 62 3 55 22 31 22 -27z m369 30 c-1 -22 -2 -23
-6 -8 -3 11 -10 23 -17 27 -7 5 -5 8 7 8 12 0 17 -7 16 -27z m-250 -50 c-1
-27 -3 -40 -6 -30 -2 9 -9 17 -14 17 -10 0 -12 43 -2 53 16 17 23 4 22 -40z
m38 -35 c-3 -8 -6 -5 -6 6 -1 11 2 17 5 13 3 -3 4 -12 1 -19z m-2097 -71 c0
-5 -4 -5 -10 -2 -5 3 -10 14 -10 23 0 15 2 15 10 2 5 -8 10 -19 10 -23z m2090
-64 c0 -5 -5 -15 -10 -23 -8 -12 -10 -11 -10 8 0 12 5 22 10 22 6 0 10 -3 10
-7z m-2100 -70 c-1 -24 -2 -26 -11 -10 -5 9 -7 22 -4 27 10 17 15 11 15 -17z
m2090 18 c0 -6 -4 -13 -10 -16 -5 -3 -10 1 -10 9 0 9 5 16 10 16 6 0 10 -4 10
-9z m-2590 -33 c0 -18 -2 -20 -9 -8 -6 8 -7 18 -5 22 9 14 14 9 14 -14z m480
-165 c0 -22 -2 -25 -10 -13 -13 20 -13 40 0 40 6 0 10 -12 10 -27z m77 -1 c1
-9 -1 -24 -4 -32 -4 -12 -7 -11 -13 5 -13 32 -12 55 3 49 8 -3 14 -13 14 -22z
m1823 7 c0 8 2 12 5 9 3 -3 1 -16 -4 -29 -5 -13 -10 -19 -10 -12 -1 6 -4 20
-7 30 -5 15 -4 15 5 3 9 -12 11 -13 11 -1z m-1860 -51 c0 -19 -2 -20 -10 -8
-13 19 -13 30 0 30 6 0 10 -10 10 -22z m2201 -31 c-8 -8 -11 -7 -11 4 0 20 13
34 18 19 3 -7 -1 -17 -7 -23z m-428 -52 c-3 -9 -8 -14 -10 -11 -3 3 -2 9 2 15
9 16 15 13 8 -4z m-2233 -56 c0 -6 -4 -7 -10 -4 -5 3 -10 11 -10 16 0 6 5 7
10 4 6 -3 10 -11 10 -16z m2594 -23 c-3 -9 -10 -16 -15 -16 -5 0 -4 9 3 20 14
22 21 20 12 -4z m-2618 -31 c1 -8 -2 -13 -7 -9 -5 3 -9 12 -9 21 0 19 13 9 16
-12z m2551 -15 c-2 -22 -7 -43 -12 -47 -4 -5 -5 -2 -1 5 4 6 2 12 -4 12 -6 0
-8 -10 -5 -22 3 -15 -3 -32 -16 -48 l-21 -25 6 28 c4 15 2 27 -4 27 -17 0 -12
13 19 49 16 19 27 40 24 48 -3 7 0 13 6 13 8 0 11 -14 8 -40z m-2431 -56 c-7
-18 -26 -9 -26 12 0 8 6 21 13 28 10 12 13 11 15 -6 2 -11 1 -26 -2 -34z m34
-17 c0 -1 4 -17 10 -36 9 -32 8 -33 -15 -28 -14 2 -25 -1 -26 -7 0 -6 -4 0
-10 12 -10 27 -4 42 17 42 8 0 12 5 9 10 -3 6 -1 10 4 10 6 0 11 -1 11 -3z
m2120 -17 c-6 -11 -13 -20 -16 -20 -2 0 0 9 6 20 6 11 13 20 16 20 2 0 0 -9
-6 -20z m30 -13 c0 -2 -12 -14 -27 -28 -20 -18 -24 -19 -13 -4 18 24 40 42 40
32z m-74 -45 c-17 -16 -18 -16 -5 5 7 12 15 20 18 17 3 -2 -3 -12 -13 -22z
m250 -29 c1 -28 -4 -47 -14 -55 -12 -10 -14 -10 -8 0 10 16 -26 11 -48 -7 -21
-18 -20 -6 6 57 18 42 26 52 43 50 16 -2 20 -11 21 -45z m-281 -51 l-28 -27
23 33 c12 18 25 31 28 27 3 -3 -7 -18 -23 -33z m87 6 c-7 -7 -12 -8 -12 -2 0
14 12 26 19 19 2 -3 -1 -11 -7 -17z m-27 -27 c-3 -6 -11 -11 -17 -11 -6 0 -6
6 2 15 14 17 26 13 15 -4z m168 4 c-3 -9 -8 -14 -10 -11 -3 3 -2 9 2 15 9 16
15 13 8 -4z m-318 -35 c-24 -27 -7 -26 22 2 13 12 23 17 23 12 0 -5 -19 -22
-43 -39 -23 -16 -36 -22 -28 -12 7 9 11 17 7 17 -4 0 1 11 10 25 9 14 19 23
22 20 3 -3 -3 -14 -13 -25z m305 1 c0 -5 -8 -18 -17 -30 -18 -22 -18 -22 -30
-2 -9 15 -10 22 -1 27 7 4 8 3 4 -4 -4 -7 -1 -12 8 -12 9 0 16 7 16 15 0 8 5
15 10 15 6 0 10 -4 10 -9z m-76 -124 c-5 -14 -44 -41 -44 -30 0 10 32 43 41
43 5 0 6 -6 3 -13z m-1448 -88 c4 -8 1 -8 -14 0 -12 6 -24 16 -28 22 -4 8 -1
8 14 0 12 -6 24 -16 28 -22z m1314 28 c0 -2 -10 -12 -22 -23 l-23 -19 19 23
c18 21 26 27 26 19z m-1259 -57 l24 -21 -32 16 c-32 15 -42 25 -24 25 5 0 19
-9 32 -20z m320 -18 c-7 -2 -18 1 -23 6 -8 8 -4 9 13 5 13 -4 18 -8 10 -11z
m439 3 c-34 -20 -60 -20 -34 0 10 8 28 14 39 14 18 0 17 -1 -5 -14z m-595 -5
c8 -13 -15 -13 -35 0 -12 8 -11 10 7 10 12 0 25 -4 28 -10z m45 -20 c8 -5 11
-10 5 -10 -5 0 -17 5 -25 10 -8 5 -10 10 -5 10 6 0 17 -5 25 -10z m457 -16
c-3 -3 -12 -4 -19 -1 -8 3 -5 6 6 6 11 1 17 -2 13 -5z m-97 -13 c-8 -5 -26
-11 -40 -15 -21 -5 -20 -3 5 9 32 15 60 20 35 6z m40 -5 c0 -3 -4 -8 -10 -11
-5 -3 -10 -1 -10 4 0 6 5 11 10 11 6 0 10 -2 10 -4z m-1170 -73 c0 -8 -13 2
-30 20 -16 19 -30 38 -30 43 0 4 14 -5 30 -21 17 -16 30 -35 30 -42z m1020 57
c-19 -13 -30 -13 -30 0 0 6 10 10 23 10 18 0 19 -2 7 -10z m475 -130 c-3 -5
-11 -10 -16 -10 -6 0 -7 5 -4 10 3 6 11 10 16 10 6 0 7 -4 4 -10z m-160 -70
c-27 -12 -43 -12 -25 0 8 5 22 9 30 9 10 0 8 -3 -5 -9z m-969 -36 c31 -20 82
-48 113 -62 31 -14 60 -29 66 -34 5 -4 21 -17 35 -28 31 -24 -179 85 -237 124
-40 27 -50 36 -38 36 2 0 30 -16 61 -36z"/>
<path d="M2488 2870 c6 -9 12 -22 12 -28 0 -6 5 -14 10 -17 19 -11 10 14 -12
37 -13 13 -17 17 -10 8z"/>
<path d="M1690 3341 c8 -6 25 -11 37 -11 12 0 28 -7 37 -15 16 -16 26 -19 26
-7 0 13 -36 30 -76 37 -29 5 -35 4 -24 -4z"/>
<path d="M1801 3306 c2 -2 15 -9 29 -15 24 -11 24 -11 6 3 -16 13 -49 24 -35
12z"/>
<path d="M1923 3237 c9 -8 17 -19 17 -25 0 -11 30 -25 38 -17 6 6 -21 29 -53
46 -18 9 -19 9 -2 -4z"/>
<path d="M2040 3220 c0 -5 5 -10 11 -10 5 0 7 5 4 10 -3 6 -8 10 -11 10 -2 0
-4 -4 -4 -10z"/>
<path d="M2510 3092 c0 -9 25 -33 50 -48 8 -4 4 6 -10 23 -25 32 -40 41 -40
25z"/>
<path d="M756 3054 c-4 -10 -1 -14 6 -12 15 5 23 28 10 28 -5 0 -13 -7 -16
-16z"/>
<path d="M2520 3045 c7 -8 17 -15 22 -15 6 0 5 7 -2 15 -7 8 -17 15 -22 15 -6
0 -5 -7 2 -15z"/>
<path d="M610 3010 c20 -17 20 -20 5 -20 -12 0 -15 -5 -11 -17 4 -10 4 -14 0
-10 -8 8 -34 -11 -34 -24 0 -5 15 -9 33 -9 24 0 41 8 61 29 16 17 23 31 17 35
-5 4 -14 -2 -20 -11 -16 -30 -21 -9 -5 22 9 19 10 25 3 18 -15 -15 -33 -17
-24 -3 4 6 -5 10 -21 10 l-27 0 23 -20z"/>
<path d="M710 3015 c-14 -16 -10 -18 14 -9 9 3 16 10 16 15 0 14 -16 11 -30
-6z"/>
<path d="M2677 2924 c6 -15 23 -19 23 -5 0 5 -7 11 -14 14 -10 4 -13 1 -9 -9z"/>
<path d="M562 2794 c-7 -8 -8 -14 -3 -14 10 0 25 19 20 25 -2 1 -10 -3 -17
-11z"/>
<path d="M2640 2786 c0 -8 5 -18 10 -21 6 -3 10 1 10 9 0 8 -4 18 -10 21 -5 3
-10 -1 -10 -9z"/>
<path d="M430 2685 c-7 -9 -11 -18 -8 -20 3 -3 11 1 18 10 7 9 11 18 8 20 -3
3 -11 -1 -18 -10z"/>
<path d="M2875 2670 c-3 -5 -1 -10 4 -10 6 0 11 5 11 10 0 6 -2 10 -4 10 -3 0
-8 -4 -11 -10z"/>
<path d="M2956 2601 c-5 -7 -3 -18 3 -24 14 -14 20 -6 11 17 -5 15 -9 16 -14
7z"/>
<path d="M2930 2575 c0 -5 5 -17 10 -25 5 -8 10 -10 10 -5 0 6 -5 17 -10 25
-5 8 -10 11 -10 5z"/>
<path d="M350 2533 c0 -6 -19 -23 -42 -38 -24 -16 -37 -30 -31 -32 25 -9 94
59 78 75 -3 3 -5 1 -5 -5z"/>
<path d="M265 2500 c-9 -16 -13 -30 -11 -30 3 0 12 14 21 30 9 17 13 30 11 30
-3 0 -12 -13 -21 -30z"/>
<path d="M2840 2478 c0 -9 7 -19 16 -22 25 -10 27 -1 4 19 -17 15 -20 16 -20
3z"/>
<path d="M2980 2380 c-9 -6 -10 -10 -3 -10 6 0 15 -9 18 -21 10 -30 16 -18 7
14 -5 20 -10 24 -22 17z"/>
<path d="M1000 2350 c0 -5 5 -10 10 -10 6 0 10 5 10 10 0 6 -4 10 -10 10 -5 0
-10 -4 -10 -10z"/>
<path d="M171 2286 c-6 -16 -10 -34 -8 -40 3 -6 10 2 16 18 6 16 10 34 8 40
-3 6 -10 -2 -16 -18z"/>
<path d="M120 2230 c-6 -23 -9 -44 -7 -46 2 -3 9 14 15 38 6 23 9 44 7 46 -2
2 -9 -15 -15 -38z"/>
<path d="M131 2144 c0 -11 3 -14 6 -6 3 7 2 16 -1 19 -3 4 -6 -2 -5 -13z"/>
<path d="M815 2014 c-33 -35 -32 -42 7 -38 38 5 51 16 46 40 -5 28 -26 28 -53
-2z"/>
<path d="M801 1944 c0 -11 3 -14 6 -6 3 7 2 16 -1 19 -3 4 -6 -2 -5 -13z"/>
<path d="M800 1830 c0 -5 7 -7 15 -4 8 4 15 8 15 10 0 2 -7 4 -15 4 -8 0 -15
-4 -15 -10z"/>
<path d="M915 1730 c-3 -5 -1 -10 4 -10 6 0 11 5 11 10 0 6 -2 10 -4 10 -3 0
-8 -4 -11 -10z"/>
<path d="M3075 1701 c3 -10 0 -31 -7 -46 -10 -22 -9 -32 7 -61 l18 -34 14 37
c7 21 10 51 7 67 -4 18 -2 26 4 22 6 -3 8 1 5 12 -2 10 -15 19 -29 20 -21 1
-24 -2 -19 -17z"/>
<path d="M870 1690 c0 -5 5 -10 10 -10 6 0 10 5 10 10 0 6 -4 10 -10 10 -5 0
-10 -4 -10 -10z"/>
<path d="M767 1654 c-11 -11 3 -24 18 -18 8 4 12 10 9 15 -6 11 -18 12 -27 3z"/>
<path d="M214 1536 c0 -13 4 -22 9 -19 10 6 9 31 -2 37 -5 3 -8 -5 -7 -18z"/>
<path d="M3026 1544 c-13 -33 -6 -49 9 -20 18 33 18 36 6 36 -5 0 -12 -7 -15
-16z"/>
<path d="M3030 1404 c-6 -14 -10 -28 -10 -32 -1 -4 -12 -20 -26 -37 -14 -16
-24 -25 -23 -20 1 6 1 17 0 25 -3 26 -30 -33 -31 -65 0 -17 -5 -36 -10 -41 -7
-7 -6 -19 3 -37 13 -24 15 -25 40 -12 26 13 27 13 27 -16 0 -16 5 -29 10 -29
6 0 10 9 10 19 0 11 9 23 20 26 22 7 25 21 21 105 -4 74 -21 89 -22 20 -1 -30
-4 -43 -6 -27 -2 15 -9 25 -14 22 -5 -4 -9 -1 -9 4 0 6 4 11 10 11 5 0 7 6 4
13 -2 7 2 32 10 55 16 45 12 59 -4 16z m-33 -126 c-3 -7 -5 -2 -5 12 0 14 2
19 5 13 2 -7 2 -19 0 -25z"/>
<path d="M2455 1359 c-4 -6 -5 -12 -2 -15 2 -3 7 2 10 11 7 17 1 20 -8 4z"/>
<path d="M210 1265 c0 -8 5 -15 10 -15 6 0 10 7 10 15 0 8 -4 15 -10 15 -5 0
-10 -7 -10 -15z"/>
<path d="M230 1155 c0 -5 5 -17 10 -25 5 -8 10 -10 10 -5 0 6 -5 17 -10 25 -5
8 -10 11 -10 5z"/>
<path d="M256 1097 c3 -10 9 -15 12 -12 3 3 0 11 -7 18 -10 9 -11 8 -5 -6z"/>
<path d="M2936 961 c-4 -46 -5 -86 -2 -88 6 -6 19 143 14 159 -3 7 -8 -25 -12
-71z"/>
<path d="M2008 883 c7 -3 16 -2 19 1 4 3 -2 6 -13 5 -11 0 -14 -3 -6 -6z"/>
<path d="M1738 783 c7 -3 16 -2 19 1 4 3 -2 6 -13 5 -11 0 -14 -3 -6 -6z"/>
<path d="M2318 530 c-34 -18 -58 -40 -43 -40 8 0 85 50 85 55 0 7 0 7 -42 -15z"/>
<path d="M780 445 c7 -8 17 -15 22 -15 6 0 5 7 -2 15 -7 8 -17 15 -22 15 -6 0
-5 -7 2 -15z"/>
<path d="M1977 350 c-3 -11 -2 -20 3 -20 12 0 31 26 23 33 -11 12 -21 7 -26
-13z"/>
<path d="M960 357 c0 -3 26 -22 57 -41 32 -20 54 -36 49 -36 -5 0 -3 -7 4 -15
7 -9 20 -13 30 -10 9 3 28 -4 42 -14 23 -18 116 -47 124 -38 2 2 -29 18 -69
37 -90 41 -140 66 -194 97 -24 14 -43 23 -43 20z"/>
<path d="M2052 334 c4 -21 22 -23 26 -1 2 10 -3 17 -13 17 -10 0 -15 -6 -13
-16z"/>
<path d="M1640 254 c0 -14 3 -14 15 -4 8 7 15 14 15 16 0 2 -7 4 -15 4 -8 0
-15 -7 -15 -16z"/>
<path d="M2006 245 c-17 -18 -22 -40 -6 -30 6 3 10 1 10 -4 0 -6 5 -11 11 -11
8 0 8 4 0 13 -8 10 -7 17 1 25 6 6 9 14 6 17 -3 3 -13 -1 -22 -10z"/>
<path d="M1258 243 c7 -3 16 -2 19 1 4 3 -2 6 -13 5 -11 0 -14 -3 -6 -6z"/>
<path d="M1990 180 c0 -5 5 -10 10 -10 6 0 10 5 10 10 0 6 -4 10 -10 10 -5 0
-10 -4 -10 -10z"/>
<path d="M1680 138 c0 -23 7 -25 55 -18 29 4 46 3 49 -4 3 -7 5 -7 5 1 1 16
-7 20 -61 28 -39 6 -48 4 -48 -7z"/>
</g>
</svg>
