<?xml version="1.0" encoding="UTF-8"?>
<svg version="1.1" xmlns="http://www.w3.org/2000/svg" width="512" height="512">
<path d="M0 0 C0.66 0 1.32 0 2 0 C9.50347508 38.23770903 -6.12698692 84.86759409 -26.625 116.6875 C-40.85973375 137.73673395 -57.66663024 157.59356215 -78 173 C-78.62583984 173.48581543 -79.25167969 173.97163086 -79.89648438 174.47216797 C-92.57137908 184.29254359 -105.93118617 192.75823181 -119.67138672 201.00195312 C-122.92407411 202.95442442 -126.16799755 204.920731 -129.41015625 206.890625 C-145.09740976 216.3960989 -161.00322909 225.48003215 -177.05859375 234.34765625 C-210.68967456 253.00231149 -230.26638745 277.57047878 -251.37750244 309.02867126 C-253.03981941 311.5042222 -254.7061708 313.97704769 -256.37255859 316.44985962 C-257.58985868 318.26023757 -258.80086191 320.07471325 -260.01171875 321.8894043 C-264.97212955 329.27849121 -270.23378853 336.20934551 -276 343 C-276.95700806 344.14432495 -276.95700806 344.14432495 -277.93334961 345.31176758 C-281.90662921 350.03885685 -286.24976074 354.06607242 -291 358 C-291.71542969 358.61488281 -292.43085938 359.22976563 -293.16796875 359.86328125 C-321.42596341 383.48261012 -357.90082946 394.52144331 -394.53515625 391.50390625 C-407.59220468 390.17334476 -419.95728419 387.21295754 -432 382 C-432.11609619 382.75788818 -432.23219238 383.51577637 -432.35180664 384.29663086 C-433.28359342 390.36769657 -434.22572739 396.43689804 -435.18359375 402.50390625 C-435.49533507 404.49811461 -435.8057604 406.49252012 -436.11517334 408.48709106 C-436.33346031 409.89260537 -436.55293763 411.29793522 -436.77349854 412.70309448 C-437.99003939 420.4881922 -439.08037304 428.24037129 -439.74609375 436.09375 C-439.85574463 437.35501709 -439.96539551 438.61628418 -440.07836914 439.91577148 C-440.27070981 442.28037446 -440.43689043 444.64730803 -440.57202148 447.01586914 C-440.65911377 448.08442139 -440.74620605 449.15297363 -440.8359375 450.25390625 C-440.89313965 451.17502197 -440.9503418 452.0961377 -441.00927734 453.04516602 C-443.93577449 461.77345458 -453.55630678 468.67625595 -459.9375 475 C-460.9175531 475.97502386 -461.8973724 476.9502828 -462.87695312 477.92578125 C-465.24902313 480.28616618 -467.6234086 482.64416905 -470 485 C-469.20930618 485.00586624 -468.41861237 485.01173248 -467.60395813 485.01777649 C-460.1442185 485.07573422 -452.68481171 485.14782817 -445.22536945 485.23571491 C-441.39058353 485.28039984 -437.55590337 485.31965984 -433.72094727 485.34643555 C-430.01842305 485.37248767 -426.31630628 485.41290288 -422.61403465 485.46318626 C-421.20313786 485.47984221 -419.79217061 485.49136444 -418.38118935 485.49761391 C-416.40155452 485.50726789 -414.422049 485.53703951 -412.44262695 485.56762695 C-411.31677689 485.57873001 -410.19092682 485.58983307 -409.03096008 485.60127258 C-405.61243524 486.05098473 -403.7484827 486.94639882 -401 489 C-398.67463937 492.48804095 -398.66542102 493.90140754 -399 498 C-400.20706879 501.34265205 -400.92056849 501.94704566 -404 504 C-406.9634783 504.20543276 -409.83375248 504.29368491 -412.79833984 504.29052734 C-413.69782852 504.29724457 -414.5973172 504.30396179 -415.52406311 504.31088257 C-418.50307715 504.32990919 -421.48186645 504.33378915 -424.4609375 504.3359375 C-426.52975559 504.34236231 -428.59857276 504.34909043 -430.66738892 504.35610962 C-435.00679633 504.36809415 -439.34612407 504.37178925 -443.68554688 504.37060547 C-449.24647415 504.37040224 -454.80689057 504.39770296 -460.36769676 504.43214989 C-464.64165596 504.45438621 -468.91549159 504.45844401 -473.18950272 504.45738602 C-475.23962794 504.45974696 -477.28975633 504.46859812 -479.33982468 504.48405075 C-482.20787072 504.50364392 -485.07480724 504.4978988 -487.94287109 504.48583984 C-488.78980026 504.49707886 -489.63672943 504.50831787 -490.50932312 504.51989746 C-494.48231196 504.47744267 -496.5449636 504.27250065 -500.02676392 502.18740845 C-502.83757877 499.07151157 -502.70959724 496.24314125 -502.5625 492.25 C-502.54517822 491.46705566 -502.52785645 490.68411133 -502.51000977 489.87744141 C-501.4882094 463.14423176 -493.42020353 437.01435487 -482 413 C-481.47865479 411.90147705 -481.47865479 411.90147705 -480.94677734 410.78076172 C-476.61768289 401.82465221 -471.49010581 393.55903893 -465.9375 385.3125 C-465.04248779 383.9661145 -465.04248779 383.9661145 -464.12939453 382.5925293 C-461.53926192 378.70733038 -458.93728721 374.88008607 -456.078125 371.1875 C-451.98691308 365.67073244 -451.98691308 365.67073244 -451.27294922 359.03320312 C-452.38511889 355.16557636 -454.05494954 351.60234913 -455.7734375 347.97265625 C-458.28192804 342.64291993 -459.81010002 337.19923071 -461.25 331.5 C-461.49661377 330.52772461 -461.74322754 329.55544922 -461.99731445 328.55371094 C-464.15816512 319.76914349 -465.79884927 310.96381141 -467 302 C-467.19722656 300.53046875 -467.19722656 300.53046875 -467.3984375 299.03125 C-472.92502264 247.05147626 -457.04643048 193.62367472 -424.51611328 152.87451172 C-385.29359388 104.38006664 -329.87611148 75.16543137 -268 68 C-259.87085742 67.17603621 -251.81944707 66.85018951 -243.65161133 66.84228516 C-242.48057358 66.83720444 -241.30953583 66.83212372 -240.10301208 66.82688904 C-237.57904091 66.81625616 -235.05506073 66.80760874 -232.53107643 66.80076981 C-228.51160998 66.78885373 -224.49224454 66.76963585 -220.4728241 66.74765015 C-209.0503612 66.68628446 -197.62790399 66.63200962 -186.20532227 66.59863281 C-179.87822148 66.580066 -173.55125576 66.55086131 -167.22425479 66.5106281 C-163.89634731 66.48991552 -160.56875509 66.47586314 -157.24076271 66.47182083 C-101.34087032 66.39677431 -51.92744314 53.31760824 -11.328125 13.4453125 C-7.77760234 9.85506927 -4.74797561 5.96049437 -1.69921875 1.94140625 C-0.85810547 0.98041016 -0.85810547 0.98041016 0 0 Z " fill="#F9E9AF" transform="translate(502,4)"/>
<path d="M0 0 C2.5 1.5 2.5 1.5 4 4 C4.87078652 9.48595506 4.87078652 9.48595506 4 12 C-0.58363974 16.53222071 -5.98161642 19.45901632 -11.625 22.5 C-13.04679565 23.27005371 -13.04679565 23.27005371 -14.49731445 24.05566406 C-40.35948671 37.85048965 -67.49147665 48.97926882 -95 59 C-95.88896973 59.32387695 -96.77793945 59.64775391 -97.69384766 59.98144531 C-112.28912632 65.26618128 -127.06371672 69.74801596 -141.9921875 73.98828125 C-195.50497574 89.23868358 -250.89487395 106.7915481 -286 153 C-286.78375 153.96808594 -287.5675 154.93617188 -288.375 155.93359375 C-295.47701256 164.75379006 -301.32700743 174.21462227 -307 184 C-307.47163574 184.8048584 -307.94327148 185.6097168 -308.42919922 186.43896484 C-315.24495511 198.15707952 -321.06680432 210.21981455 -326.5 222.625 C-326.79750153 223.30177795 -327.09500305 223.97855591 -327.40151978 224.67584229 C-336.5110508 245.48832009 -341.94633195 266.76095879 -345.625 289.125 C-345.77407806 290.0139798 -345.92315613 290.90295959 -346.07675171 291.81887817 C-348.76857539 307.8708152 -351.26294191 323.97571534 -352.37109375 340.2265625 C-352.46910278 341.45838257 -352.46910278 341.45838257 -352.5690918 342.71508789 C-352.68347909 344.19934403 -352.77285487 345.68592596 -352.82739258 347.17358398 C-353.63331759 357.37235823 -365.12765511 365.25146337 -371.9375 372 C-372.9175531 372.97502386 -373.8973724 373.9502828 -374.87695312 374.92578125 C-377.24902313 377.28616618 -379.6234086 379.64416905 -382 382 C-381.20930618 382.00586624 -380.41861237 382.01173248 -379.60395813 382.01777649 C-372.1442185 382.07573422 -364.68481171 382.14782817 -357.22536945 382.23571491 C-353.39058353 382.28039984 -349.55590337 382.31965984 -345.72094727 382.34643555 C-342.01842305 382.37248767 -338.31630628 382.41290288 -334.61403465 382.46318626 C-333.20313786 382.47984221 -331.79217061 382.49136444 -330.38118935 382.49761391 C-328.40155452 382.50726789 -326.422049 382.53703951 -324.44262695 382.56762695 C-323.31677689 382.57873001 -322.19092682 382.58983307 -321.03096008 382.60127258 C-317.61243524 383.05098473 -315.7484827 383.94639882 -313 386 C-310.67463937 389.48804095 -310.66542102 390.90140754 -311 395 C-312.20706879 398.34265205 -312.92056849 398.94704566 -316 401 C-318.9634783 401.20543276 -321.83375248 401.29368491 -324.79833984 401.29052734 C-325.69782852 401.29724457 -326.5973172 401.30396179 -327.52406311 401.31088257 C-330.50307715 401.32990919 -333.48186645 401.33378915 -336.4609375 401.3359375 C-338.52975559 401.34236231 -340.59857276 401.34909043 -342.66738892 401.35610962 C-347.00679633 401.36809415 -351.34612407 401.37178925 -355.68554688 401.37060547 C-361.24647415 401.37040224 -366.80689057 401.39770296 -372.36769676 401.43214989 C-376.64165596 401.45438621 -380.91549159 401.45844401 -385.18950272 401.45738602 C-387.23962794 401.45974696 -389.28975633 401.46859812 -391.33982468 401.48405075 C-394.20787072 401.50364392 -397.07480724 401.4978988 -399.94287109 401.48583984 C-400.78980026 401.49707886 -401.63672943 401.50831787 -402.50932312 401.51989746 C-406.48231196 401.47744267 -408.5449636 401.27250065 -412.02676392 399.18740845 C-414.83757877 396.07151157 -414.70959724 393.24314125 -414.5625 389.25 C-414.54517822 388.46705566 -414.52785645 387.68411133 -414.51000977 386.87744141 C-413.4882094 360.14423176 -405.42020353 334.01435487 -394 310 C-393.47865479 308.90147705 -393.47865479 308.90147705 -392.94677734 307.78076172 C-387.21792637 295.92881042 -379.94261565 285.1924791 -372.56396484 274.31933594 C-362.22606973 258.98839563 -354.00967022 242.86183946 -347.0625 225.75 C-333.51966966 192.42777914 -316.91537923 161.07264477 -293 134 C-291.89591797 132.71222656 -291.89591797 132.71222656 -290.76953125 131.3984375 C-258.68250187 94.57725624 -213.37313048 76.68424752 -167.8125 62.625 C-166.58469818 62.24532074 -166.58469818 62.24532074 -165.33209229 61.85797119 C-155.74728499 58.90626186 -146.15156932 56.19458054 -136.39404297 53.87255859 C-132.36939053 52.83787957 -128.55440429 51.47615923 -124.67822266 49.98999023 C-121.8002597 48.9261671 -118.90144582 48.03587136 -115.9609375 47.16015625 C-84.50263588 37.55805193 -53.53117214 24.19550171 -24.6015625 8.57421875 C-23.56604248 8.01790771 -22.53052246 7.46159668 -21.46362305 6.88842773 C-19.50326133 5.82703302 -17.5509391 4.75059696 -15.60864258 3.65649414 C-10.07589788 0.65052269 -6.31486884 -0.76031866 0 0 Z " fill="#F29C20" transform="translate(414,107)"/>
<path d="M0 0 C0.97276597 -0.00445784 1.94553194 -0.00891569 2.94777566 -0.01350862 C4.02411395 -0.01332426 5.10045225 -0.01313989 6.20940685 -0.01294994 C7.91564505 -0.01846498 7.91564505 -0.01846498 9.6563527 -0.02409142 C12.82322652 -0.03322921 15.99006989 -0.03783035 19.15695465 -0.04048073 C22.56877982 -0.04437981 25.98058993 -0.05395838 29.39240551 -0.0626936 C37.63637894 -0.08246869 45.88035363 -0.09252529 54.12434486 -0.10142139 C58.00438615 -0.10580236 61.88442607 -0.11116964 65.76446629 -0.11641026 C78.65866627 -0.13342317 91.5528654 -0.14791823 104.44707489 -0.155159 C107.79421839 -0.15706896 111.14136189 -0.15898928 114.48850536 -0.16094494 C115.32044433 -0.16142868 116.1523833 -0.16191242 117.00953253 -0.16241082 C130.49201093 -0.17071442 143.9744007 -0.19605661 157.45684037 -0.22852562 C171.29167145 -0.2615723 185.12645745 -0.27960557 198.96132821 -0.28280324 C206.73208878 -0.2849705 214.5027201 -0.29375069 222.27344227 -0.31926441 C228.89017649 -0.34093877 235.50675007 -0.349038 242.12351576 -0.33929763 C245.50046882 -0.33474332 248.87682058 -0.33887166 252.25377369 -0.35605907 C255.91309602 -0.37364553 259.57156964 -0.36673634 263.23089123 -0.35352612 C264.30053736 -0.36449536 265.37018348 -0.37546461 266.47224313 -0.38676625 C273.65660761 -0.32389767 273.65660761 -0.32389767 277.54685783 2.03970528 C279.96809005 4.76070528 280.369156 5.76791593 280.7856245 9.44672108 C280.4106245 13.13422108 280.4106245 13.13422108 278.58982468 15.82542801 C273.89894969 19.23202686 269.83231717 18.82470789 264.16842175 18.76241016 C263.01949367 18.76950455 261.8705656 18.77659894 260.68682152 18.78390831 C257.50166217 18.79846443 254.31746868 18.79059384 251.13235247 18.77318537 C247.69602601 18.75981829 244.25981238 18.77524595 240.82349682 18.78700733 C234.0936587 18.80539279 227.36411079 18.796866 220.63428169 18.77891911 C215.16578309 18.76489831 209.69736331 18.76099917 204.22884846 18.76436138 C203.06178221 18.76507754 203.06178221 18.76507754 201.87113886 18.76580818 C200.29061244 18.76683449 198.71008603 18.76788985 197.12955964 18.76897394 C183.15198214 18.77754268 169.17454485 18.76085978 155.19700146 18.73114491 C141.62923323 18.70230151 128.06166694 18.69522633 114.49387646 18.71063709 C99.72318224 18.72739115 84.95258392 18.73144204 70.18188721 18.71392673 C68.60745308 18.71208232 67.03301894 18.71024759 65.45858479 18.70842266 C64.29656899 18.70705453 64.29656899 18.70705453 63.11107812 18.70565875 C57.64762657 18.70004882 52.18422177 18.70336473 46.72077274 18.70996761 C40.06488637 18.71769221 33.40919892 18.71097979 26.75335269 18.68579257 C23.35635105 18.67327762 19.95965943 18.66717482 16.56264591 18.67833424 C12.88338243 18.68697855 9.20503059 18.67115653 5.52584362 18.64888477 C4.44754911 18.65712554 3.36925461 18.66536631 2.25828451 18.67385679 C-4.95641822 18.5928315 -4.95641822 18.5928315 -8.22157669 16.2270546 C-10.57027184 12.63337699 -11.01396618 10.46504601 -10.5893755 6.13422108 C-7.43378123 1.40082967 -5.57553579 0.01181452 0 0 Z " fill="#3E5B6B" transform="translate(129.58937549591064,489.86577892303467)"/>
<path d="M0 0 C0 5.65197301 -4.36693931 10.32280008 -7.375 14.9375 C-8.05433594 16.03513672 -8.73367187 17.13277344 -9.43359375 18.26367188 C-14.07800484 25.37786793 -17.71398119 28.95083181 -26 31 C-26.72960937 31.21180908 -27.45921875 31.42361816 -28.2109375 31.6418457 C-30.23552992 32.21209013 -32.26401884 32.71106228 -34.3125 33.1875 C-34.98861328 33.35185547 -35.66472656 33.51621094 -36.36132812 33.68554688 C-57.00555312 38.66030158 -81.82865274 37.95110987 -101 28 C-104.33945645 25.47836962 -105.77540009 23.10053955 -106.625 18.9375 C-105.74332649 14.79363449 -104.51242244 13.36550899 -101 11 C-95.23160336 10.34140353 -89.98543605 12.58171132 -84.84765625 14.96484375 C-60.2705363 23.89891342 -33.83610232 15.9421829 -11 6 C-7.21620667 4.20188967 -3.56397187 2.20348612 0 0 Z " fill="#F9C177" transform="translate(251,309)"/>
<path d="M0 0 C-0.90878906 1.11181641 -0.90878906 1.11181641 -1.8359375 2.24609375 C-13.5386125 16.83316447 -21.80121661 32.36807311 -28 50 C-28.42152344 51.19367188 -28.84304687 52.38734375 -29.27734375 53.6171875 C-32.24980636 63.33097097 -33.01372661 73.27069607 -33.78637695 83.3671875 C-33.93852661 85.12289062 -33.93852661 85.12289062 -34.09375 86.9140625 C-34.21266602 88.4911499 -34.21266602 88.4911499 -34.33398438 90.10009766 C-35.14075975 93.61288283 -36.5395733 95.40423822 -39 98 C-41.84083641 99.42041821 -43.85477278 99.31452272 -47 99 C-49.30275556 97.1329009 -50.67823871 95.64352259 -52 93 C-53.71486288 72.59313171 -48.87728278 51.87571761 -40.89306641 33.16699219 C-40.01318286 31.03198771 -39.2595714 28.87950124 -38.51171875 26.6953125 C-33.88549423 14.40793402 -24.97196773 9.71919514 -13.48828125 4.20117188 C-11.86521323 3.41766573 -10.25700297 2.60236591 -8.66796875 1.75195312 C-3.32129695 -1.10709898 -3.32129695 -1.10709898 0 0 Z " fill="#FAC277" transform="translate(163,93)"/>
<path d="M0 0 C1.30508011 -0.00960754 2.61016022 -0.01921509 3.95478821 -0.02911377 C5.38676784 -0.033962 6.8187495 -0.03824076 8.25073242 -0.04199219 C9.71563214 -0.04774413 11.18053184 -0.05350186 12.64543152 -0.05926514 C15.71967927 -0.06977689 18.79390086 -0.07561813 21.86816406 -0.07910156 C25.80248606 -0.08458098 29.73646104 -0.10859607 33.67067432 -0.13707352 C36.69818623 -0.15572386 39.72561505 -0.1609068 42.75317955 -0.16243744 C44.20322246 -0.16546006 45.65326404 -0.17347545 47.1032505 -0.18662262 C49.13516998 -0.20372818 51.16723257 -0.19995154 53.19921875 -0.1953125 C54.35456619 -0.19895813 55.50991364 -0.20260376 56.70027161 -0.20635986 C60.17499152 0.20642927 62.01299501 1.06858053 64.79370117 3.16113281 C67.11906181 6.64917376 67.12828015 8.06254035 66.79370117 12.16113281 C65.58663238 15.50378486 64.87313268 16.10817847 61.79370117 18.16113281 C58.98432359 18.34556261 56.27558422 18.4133437 53.46679688 18.38818359 C52.1932988 18.38862167 52.1932988 18.38862167 50.89407349 18.3890686 C48.08577277 18.38767444 45.27773684 18.37210917 42.46948242 18.35644531 C40.52321009 18.35271549 38.57693589 18.34986837 36.63066101 18.34786987 C31.5063255 18.340231 26.38210324 18.32058029 21.2578125 18.29846191 C16.0295566 18.27800898 10.80128242 18.26886934 5.57299805 18.25878906 C-4.68681735 18.23733467 -14.94654868 18.20319563 -25.20629883 18.16113281 C-24.41507126 17.37023254 -23.62384369 16.57933228 -22.80863953 15.76446533 C-20.92102928 13.87613566 -19.03836 11.9837677 -17.16333008 10.08300781 C-16.11517575 9.02569359 -15.06699844 7.96840214 -14.01879883 6.91113281 C-13.21925781 6.09902344 -13.21925781 6.09902344 -12.40356445 5.27050781 C-7.97943085 0.81854947 -6.22541088 0.0368678 0 0 Z " fill="#3F5C6B" transform="translate(36.206298828125,489.8388671875)"/>
<path d="M0 0 C1.79391887 0.68244186 3.57898319 1.388906 5.3515625 2.125 C13.35814161 4.62380232 21.86343501 4.21641886 30.16796875 4.1875 C31.26689453 4.19136719 32.36582031 4.19523437 33.49804688 4.19921875 C40.83083147 4.19057669 48.05905734 3.78612467 55.35546875 3.0625 C54.63746094 3.77148438 53.91945313 4.48046875 53.1796875 5.2109375 C50.4277039 7.96389113 47.78875809 10.8089931 45.16796875 13.6875 C44.30816406 14.62851562 43.44835937 15.56953125 42.5625 16.5390625 C40.26978727 19.04993196 40.26978727 19.04993196 38.35546875 22.0625 C36.23925781 22.45068359 36.23925781 22.45068359 33.62109375 22.4609375 C32.18092896 22.47000122 32.18092896 22.47000122 30.71166992 22.47924805 C29.17410034 22.45858276 29.17410034 22.45858276 27.60546875 22.4375 C26.56302002 22.42952393 25.52057129 22.42154785 24.4465332 22.41333008 C16.3819408 22.26517812 9.12481021 21.30583303 1.35546875 19.0625 C0.41316406 18.82273437 -0.52914062 18.58296875 -1.5 18.3359375 C-6.91148766 16.88115057 -11.59947293 15.10755832 -15.64453125 11.0625 C-16.07821672 8.0081152 -16.10254841 5.11417251 -15.64453125 2.0625 C-11.31447322 -3.62070117 -5.96588631 -2.11493754 0 0 Z " fill="#FAC277" transform="translate(238.64453125,253.9375)"/>
<path d="M0 0 C0.66 0.33 1.32 0.66 2 1 C2.43896484 3.07861328 2.43896484 3.07861328 2.7109375 5.8203125 C2.81905762 6.82352539 2.92717773 7.82673828 3.03857422 8.86035156 C3.14959473 9.93768555 3.26061523 11.01501953 3.375 12.125 C5.12068757 27.36213394 8.23194457 41.80976874 15.875 55.3125 C17.42153151 59.00699194 17.12969664 61.18727384 16 65 C13.875 67.5 13.875 67.5 11 69 C7.5 69.125 7.5 69.125 4 68 C0.03964515 63.87230621 -2.36309718 59.74453221 -4.5625 54.5 C-4.85842041 53.80656494 -5.15434082 53.11312988 -5.45922852 52.39868164 C-14.49556821 30.67932618 -14.49556821 30.67932618 -10.390625 20.625 C-9.69043951 19.07722156 -8.976563 17.53557287 -8.25 16 C-7.90195312 15.23171875 -7.55390625 14.4634375 -7.1953125 13.671875 C-5.03175267 8.96012249 -2.63562159 4.46393567 0 0 Z " fill="#FAC277" transform="translate(60,183)"/>
<path d="M0 0 C1.75005353 0.01570561 3.50009878 0.03457604 5.25 0.0625 C5.25 2.0625 5.25 2.0625 3.04296875 4.38671875 C2.12128906 5.26972656 1.19960937 6.15273437 0.25 7.0625 C-7.45626387 14.79466727 -13.07695199 22.92948197 -18.65429688 32.24755859 C-20.13466097 34.69965901 -21.67713832 37.10634885 -23.25 39.5 C-23.91515625 40.51900391 -23.91515625 40.51900391 -24.59375 41.55859375 C-25.75 43.0625 -25.75 43.0625 -27.75 44.0625 C-31.5121596 44.41084811 -33.89128053 44.56892431 -37.1875 42.625 C-38.98764886 39.67275586 -39.61548477 37.32912322 -39.4453125 33.86328125 C-37.98851079 27.99515301 -34.44314938 23.05434447 -31.1015625 18.09570312 C-29.72487313 16.02470076 -28.42566464 13.91626159 -27.125 11.796875 C-20.78304528 1.86331492 -20.78304528 1.86331492 -15.8046875 -0.09765625 C-10.55655923 -0.58410156 -5.28023802 0.08686643 0 0 Z " fill="#F9C277" transform="translate(252.75,70.9375)"/>
<path d="M0 0 C4.96901683 1.00070478 9.26767349 3.5274453 13.67578125 5.9375 C17.82497847 8.09218897 21.15421296 8.6846501 25.796875 8.8828125 C27.19873047 8.9456543 27.19873047 8.9456543 28.62890625 9.00976562 C29.59699219 9.04908203 30.56507813 9.08839844 31.5625 9.12890625 C32.54605469 9.17208984 33.52960938 9.21527344 34.54296875 9.25976562 C36.96601275 9.36562677 39.3891554 9.46770796 41.8125 9.56640625 C37.78151237 13.91604903 33.37627089 17.17767304 28.4375 20.44140625 C27.70789063 20.951875 26.97828125 21.46234375 26.2265625 21.98828125 C22.5470961 24.41935726 20.61119623 25.58239701 16.10546875 25.4921875 C15.01878906 25.18667969 13.93210937 24.88117188 12.8125 24.56640625 C11.90886719 24.31503906 11.00523437 24.06367188 10.07421875 23.8046875 C-5.89426796 18.06184782 -5.89426796 18.06184782 -9.4765625 12.6015625 C-10.60574471 9.36912331 -9.96175644 6.84210656 -9.1875 3.56640625 C-6.59628952 0.25798572 -4.1881195 -0.10332532 0 0 Z " fill="#FAC277" transform="translate(369.1875,175.43359375)"/>
<path d="M0 0 C0.89267578 0.01804687 1.78535156 0.03609375 2.70507812 0.0546875 C4.90863504 0.10182241 7.11002601 0.16759343 9.3125 0.25 C7.80304566 4.25528478 5.92670909 7.96268487 3.9375 11.75 C0.93355294 17.54222216 -1.04627867 23.23437889 -2.5703125 29.60546875 C-3.99053955 32.96733487 -5.38244648 33.8080651 -8.6875 35.25 C-12.84634126 35.25 -14.92542276 34.85966179 -18.1875 32.25 C-20.6426103 27.3397794 -19.67540951 23.36669517 -18.08203125 18.33984375 C-11.72642395 -0.44606733 -11.72642395 -0.44606733 0 0 Z " fill="#F9C177" transform="translate(343.6875,71.75)"/>
<path d="M0 0 C5.28 0 10.56 0 16 0 C14.68 1.32 13.36 2.64 12 4 C12 3.01 12 2.02 12 1 C8.04 1 4.08 1 0 1 C0 0.67 0 0.34 0 0 Z " fill="#F9D189" transform="translate(395,185)"/>
</svg>
