<?xml version="1.0" encoding="UTF-8"?>
<svg version="1.1" xmlns="http://www.w3.org/2000/svg" width="512" height="512">
<path d="M0 0 C0.33 0 0.66 0 1 0 C3.08183637 39.32357585 -16.63036805 81.14880232 -41 111 C-41.43038574 111.53334961 -41.86077148 112.06669922 -42.30419922 112.61621094 C-52.35479378 125.02573258 -63.36480854 136.2037836 -76 146 C-77.07429229 146.84235414 -78.14850811 147.68480581 -79.22265625 148.52734375 C-81.42162629 150.24524879 -83.63491599 151.94151492 -85.86328125 153.62109375 C-87.84364208 155.12301124 -89.8028917 156.65356992 -91.73046875 158.22265625 C-98.54139986 163.53412656 -98.54139986 163.53412656 -103.4375 163.1875 C-110.20534796 161.75008096 -116.92488605 159.40214022 -122.8125 155.75 C-126.3143129 153.82743605 -128.07915104 153.30296018 -132 154 C-135.05623277 156.09110663 -135.86463014 157.29306849 -136.5625 160.9375 C-135.98336 164.09059555 -135.23360247 165.62587337 -132.84375 167.765625 C-128.87102654 170.42532969 -124.4064933 172.18646948 -120 174 C-120 174.66 -120 175.32 -120 176 C-122.11352539 177.48950195 -122.11352539 177.48950195 -125.09765625 179.23828125 C-126.19762939 179.88700195 -127.29760254 180.53572266 -128.4309082 181.20410156 C-129.64124238 181.90723925 -130.85177806 182.61003019 -132.0625 183.3125 C-133.29996104 184.03702901 -134.53718214 184.76196798 -135.77416992 185.48730469 C-149.00951842 193.2307231 -162.29648337 200.90557409 -175.828125 208.12109375 C-190.20955393 215.79653453 -203.02780021 223.81778097 -214.890625 235.06640625 C-220.93305733 240.60530256 -232.17927236 238.42326223 -239.89355469 238.19677734 C-247.7300692 237.70037443 -255.48156398 235.81247999 -262.765625 232.890625 C-265.72478779 231.71109857 -267.84334399 231.59702264 -271 232 C-273.5 233.5 -273.5 233.5 -275 236 C-275.66666667 239 -275.66666667 239 -275 242 C-271.76492672 246.2196608 -267.8187151 247.53427963 -262.9375 249.125 C-262.15906738 249.38361816 -261.38063477 249.64223633 -260.57861328 249.90869141 C-251.8726104 252.62096617 -243.06202505 253.41729772 -234 254 C-234.60817733 257.09772962 -235.59161059 259.14056865 -237.44140625 261.6875 C-237.93866211 262.38020996 -238.43591797 263.07291992 -238.94824219 263.78662109 C-239.48094727 264.51703613 -240.01365234 265.24745117 -240.5625 266 C-241.66402829 267.5329439 -242.76428505 269.06680228 -243.86328125 270.6015625 C-244.67079834 271.72739746 -244.67079834 271.72739746 -245.49462891 272.87597656 C-247.47550581 275.67092128 -249.36796737 278.51250726 -251.25 281.375 C-251.889375 282.31472656 -252.52875 283.25445312 -253.1875 284.22265625 C-255.04290637 286.97605584 -255.04290637 286.97605584 -256.5625 289.93359375 C-262.51469711 300.08815224 -272.2254399 302.18511982 -283 305 C-283.7022168 305.19062012 -284.40443359 305.38124023 -285.12792969 305.57763672 C-303.14244117 310.29016104 -323.58709394 309.97513964 -340.73828125 302.37890625 C-345.23876165 300.47630795 -348.4011261 300.46704203 -353 302 C-353.27748242 303.41154099 -353.52093516 304.82979799 -353.75 306.25 C-353.88921875 307.03890625 -354.0284375 307.8278125 -354.171875 308.640625 C-354.20481489 311.12972332 -354.20481489 311.12972332 -352.390625 313.13671875 C-337.93624582 324.40263194 -314.83889954 325.15801817 -297.375 323.125 C-295.26675922 322.86058696 -293.16181421 322.58094328 -291.05761719 322.28613281 C-287.70966156 321.82056518 -284.35460057 321.41461355 -281 321 C-295.30073598 343.97606397 -324.559105 357.81361837 -350 364 C-351.89492188 364.47953125 -351.89492188 364.47953125 -353.828125 364.96875 C-379.02311519 370.68579389 -405.50746089 368.59223267 -428 356 C-430.62183406 362.05975422 -431.63590173 368.42225641 -432.875 374.875 C-433.00628296 375.55284546 -433.13756592 376.23069092 -433.27282715 376.92907715 C-436.57099138 394.07292079 -439.23721806 411.46371522 -440.44140625 428.88671875 C-440.54050293 430.18851074 -440.54050293 430.18851074 -440.64160156 431.51660156 C-440.74980025 433.04931319 -440.83188897 434.58428121 -440.87792969 436.12011719 C-441.59151847 446.36134649 -453.11125089 454.23520684 -459.9375 461 C-460.9175531 461.97502386 -461.8973724 462.9502828 -462.87695312 463.92578125 C-465.24902313 466.28616618 -467.6234086 468.64416905 -470 471 C-468.83275139 471.01213028 -468.83275139 471.01213028 -467.641922 471.02450562 C-460.29997688 471.10252272 -452.95822846 471.18983468 -445.61652088 471.28752708 C-441.84228487 471.33742269 -438.06807593 471.3837531 -434.29370117 471.421875 C-430.64960907 471.45881322 -427.00574724 471.50519591 -423.36185265 471.55806351 C-421.97327409 471.57656221 -420.58464626 471.59168682 -419.19599342 471.60334396 C-417.24750665 471.62028326 -415.2991486 471.6504508 -413.35083008 471.68115234 C-411.68870232 471.70113785 -411.68870232 471.70113785 -409.99299622 471.7215271 C-406.22100907 472.0724785 -403.33241616 473.04827417 -400.25 475.25 C-398.38966847 477.85446415 -398.1249721 479.81321139 -398 483 C-399.10296591 486.01864354 -399.93775715 488.21475029 -402.56202698 490.15470886 C-406.26141811 491.4373574 -409.9499461 491.28609919 -413.82006836 491.2746582 C-415.15489006 491.2823246 -415.15489006 491.2823246 -416.51667786 491.29014587 C-419.4578016 491.30404404 -422.39869107 491.30308496 -425.33984375 491.30078125 C-427.38481229 491.30466799 -429.42978002 491.30900262 -431.4747467 491.31376648 C-435.7611045 491.32122913 -440.04737993 491.32093702 -444.33374023 491.31567383 C-449.82617791 491.30987851 -455.31827844 491.32681159 -460.81066036 491.3500185 C-465.03400137 491.36475117 -469.25726109 491.36562818 -473.48062325 491.36250877 C-475.50561758 491.3630222 -477.53061644 491.3682639 -479.55558586 491.37832069 C-482.38745909 491.39065889 -485.21867439 491.38390911 -488.05053711 491.37231445 C-488.88654449 491.37995819 -489.72255188 491.38760193 -490.58389282 491.39547729 C-495.20543497 491.3536595 -498.24615425 491.00158397 -502 488 C-510.22603347 471.54793305 -498.08582714 439.00470451 -493.00488281 422.97802734 C-490.22444575 414.73804405 -486.75135383 406.83820727 -483 399 C-482.44602539 397.83041748 -482.44602539 397.83041748 -481.88085938 396.63720703 C-476.48435734 385.40709574 -469.91953054 375.16799875 -462.91748047 364.87670898 C-458.69198386 358.63827896 -454.71078367 352.3437683 -451.0625 345.75 C-450.65580078 345.01773193 -450.24910156 344.28546387 -449.83007812 343.53100586 C-446.55613106 337.88209049 -446.55613106 337.88209049 -446.55737305 331.66015625 C-446.87230713 330.80292969 -447.18724121 329.94570313 -447.51171875 329.0625 C-447.8557373 328.09546143 -448.19975586 327.12842285 -448.55419922 326.13208008 C-448.92818848 325.09849365 -449.30217773 324.06490723 -449.6875 323 C-461.95009066 287.57680697 -467.0711296 239.19279768 -451 204 C-447.95430573 205.52284713 -447.80828202 207.84574701 -446.6875 211 C-443.58629436 220.80184331 -443.58629436 220.80184331 -437 228 C-432.31724338 228.46712816 -432.31724338 228.46712816 -428.125 226.75 C-426.84843367 224.76423016 -426.36876154 223.33130941 -426 221 C-426.5015211 219.04935891 -426.5015211 219.04935891 -427.4765625 217.12109375 C-427.81558594 216.37400146 -428.15460938 215.62690918 -428.50390625 214.85717773 C-429.05884766 213.65943726 -429.05884766 213.65943726 -429.625 212.4375 C-432.59154546 205.71398085 -435.10683966 199.04220929 -437 191.9375 C-437.20705566 191.18976318 -437.41411133 190.44202637 -437.62744141 189.67163086 C-439.70314081 181.49279609 -440.31865895 174.17787854 -436.10595703 166.63549805 C-435.67911621 165.93078369 -435.25227539 165.22606934 -434.8125 164.5 C-434.14516846 163.35494995 -434.14516846 163.35494995 -433.46435547 162.18676758 C-425.82770529 149.36763632 -417.02896027 137.52141885 -406.65625 126.796875 C-404.80109134 124.84350206 -403.07793806 122.9209503 -401.37890625 120.84375 C-399.47718864 118.5704324 -397.68248202 116.65848583 -395.4375 114.75 C-394.76589844 114.17636719 -394.09429687 113.60273437 -393.40234375 113.01171875 C-392.60957031 112.34785156 -391.81679688 111.68398437 -391 111 C-390.49355957 110.57541504 -389.98711914 110.15083008 -389.46533203 109.71337891 C-385.98561986 106.79833427 -382.49581863 103.89570309 -379 101 C-378.34 101.33 -377.68 101.66 -377 102 C-377.2266333 102.63800537 -377.4532666 103.27601074 -377.68676758 103.93334961 C-383.51272166 120.47264367 -387.69710624 135.81694208 -388.8125 153.3125 C-388.86591553 154.11985596 -388.91933105 154.92721191 -388.97436523 155.7590332 C-389.26246282 161.20904984 -389.26246282 161.20904984 -387 166 C-384.59958437 167.73823201 -383.40726587 168.02979994 -380.4375 167.8125 C-377.81246696 166.93748899 -376.71068663 166.13835829 -375 164 C-373.82519263 161.65038527 -373.77013288 159.99147732 -373.60546875 157.37109375 C-371.79509178 131.47319806 -365.89141343 103.58189415 -349.203125 82.7578125 C-331.06572694 68.28648426 -295.13241774 57.03093926 -272 58 C-272.44730469 58.76183594 -272.89460937 59.52367187 -273.35546875 60.30859375 C-274.6122927 62.4551097 -275.86329923 64.60503932 -277.109375 66.7578125 C-278.24370725 68.70305169 -279.39468818 70.63892592 -280.578125 72.5546875 C-283.35285908 77.16329755 -284.88760312 80.4524805 -284 86 C-282.46609879 88.42194927 -281.30591626 88.88729401 -278.625 89.875 C-275.10986711 90.04238728 -273.81519182 89.0843663 -271 87 C-269.17650658 84.2292392 -269.17650658 84.2292392 -267.6875 81 C-264.35582989 74.50288194 -260.56309833 68.69572452 -256 63 C-255.55248886 62.34642517 -255.10497772 61.69285034 -254.64390564 61.01947021 C-252.29346722 57.87574444 -250.40578429 55.43433126 -246.57156372 54.24971008 C-243.66835254 53.96114299 -240.85862198 53.92171558 -237.94140625 53.97265625 C-236.85670547 53.96105972 -235.7720047 53.9494632 -234.6544342 53.93751526 C-231.10138721 53.91381684 -227.5527603 53.95224609 -224 54 C-221.54020394 54.01452354 -219.08040569 54.02867978 -216.62060547 54.04248047 C-209.05788695 54.10855752 -201.49848929 54.26804037 -193.9375 54.4375 C-191.30535235 54.49091907 -188.67319078 54.54365677 -186.04101562 54.59570312 C-179.69382922 54.72265246 -173.34686361 54.85786512 -167 55 C-167.20686432 55.68720627 -167.41372864 56.37441254 -167.62686157 57.08244324 C-167.89775604 57.98360367 -168.16865051 58.8847641 -168.44775391 59.81323242 C-168.71649323 60.70668869 -168.98523254 61.60014496 -169.26211548 62.52067566 C-171.77097916 70.23245867 -171.77097916 70.23245867 -171.0625 78.0625 C-168.12188207 80.82489866 -165.98196461 81 -162 81 C-159.50027847 79.83666806 -158.29893528 78.66766021 -157.16967773 76.14550781 C-156.3590689 73.82122947 -155.63379297 71.48601499 -154.9375 69.125 C-154.45238627 67.52167982 -153.96163317 65.92005348 -153.46484375 64.3203125 C-153.254646 63.61148926 -153.04444824 62.90266602 -152.82788086 62.17236328 C-151.78243701 59.42911368 -150.83593137 57.31537683 -149 55 C-146.13452148 54.31225586 -146.13452148 54.31225586 -142.62109375 54.21484375 C-140.66985596 54.13508301 -140.66985596 54.13508301 -138.67919922 54.05371094 C-137.98791931 54.03530151 -137.2966394 54.01689209 -136.58441162 53.9979248 C-132.94013248 53.89535661 -129.30072752 53.70236898 -125.66015625 53.51171875 C-124.92474609 53.47434601 -124.18933594 53.43697327 -123.43164062 53.39846802 C-77.13854745 50.88579888 -32.95597337 32.95597337 0 0 Z M-95.72265625 86.26171875 C-96.3715834 86.60373322 -97.02051056 86.94574768 -97.68910217 87.29812622 C-99.08727861 88.03536291 -100.48326627 88.77676265 -101.8772583 89.5218811 C-105.60058808 91.5079239 -109.34542581 93.45252603 -113.08984375 95.3984375 C-114.22516541 95.98921837 -114.22516541 95.98921837 -115.38342285 96.5919342 C-154.32278263 116.78951379 -195.63878128 130.9244928 -237.6875 143.0625 C-312.35188911 164.620134 -372.45400127 195.49376756 -411.8125 265.25 C-421.37529047 282.60197763 -429.80208726 300.61029012 -437.3125 318.9375 C-438.00557251 320.6244397 -438.00557251 320.6244397 -438.71264648 322.34545898 C-441.60045593 329.47163449 -441.60045593 329.47163449 -443 337 C-441.52223033 339.54685755 -440.16830775 341.5230307 -438.3125 343.75 C-437.86455078 344.32621094 -437.41660156 344.90242188 -436.95507812 345.49609375 C-434.53664525 348.51649463 -432.50786301 350.42768655 -429 352 C-428.70609375 350.74832031 -428.4121875 349.49664062 -428.109375 348.20703125 C-422.83402544 326.88158342 -414.33278488 306.30928512 -404.01269531 286.92382812 C-402.8843575 284.78031271 -401.79713043 282.61828763 -400.7109375 280.453125 C-389.73089332 258.77344395 -375.70947702 239.58756391 -359 222 C-358.38253906 221.31808594 -357.76507813 220.63617188 -357.12890625 219.93359375 C-323.76865167 184.34436893 -272.50463269 170.87206936 -227.33044434 157.68096924 C-185.13388272 145.35089124 -144.86182905 130.52736664 -105.56884766 110.79199219 C-103.31659309 109.66108861 -101.06142842 108.53594521 -98.80224609 107.41894531 C-96.10973813 106.08689565 -93.42775966 104.73640105 -90.75 103.375 C-90.01209229 103.00987305 -89.27418457 102.64474609 -88.51391602 102.26855469 C-83.86877809 99.84791984 -80.99803409 97.32920753 -78 93 C-77.66449153 89.84627591 -77.66449153 89.84627591 -79 87 C-81.3322594 84.53817063 -82.85201919 83.15571116 -86.25170898 82.69458008 C-89.85023771 83.09448764 -92.59329239 84.5576624 -95.72265625 86.26171875 Z M-456 388 C-466.85848983 408.15911827 -475.41557095 427.19905195 -481.03125 449.40625 C-481.24330078 450.24478516 -481.45535156 451.08332031 -481.67382812 451.94726562 C-482.2134047 454.05821807 -482.2134047 454.05821807 -481 456 C-470.24586871 448.56969214 -460.71756743 440.59112072 -457.957901 427.42115784 C-455.749626 414.45896488 -454.88075772 401.14416857 -455 388 C-455.33 388 -455.66 388 -456 388 Z " fill="#000000" transform="translate(503,13)"/>
<path d="M0 0 C0.97203127 -0.00384115 1.94406254 -0.00768229 2.94554931 -0.01163983 C4.01080673 -0.01077335 5.07606415 -0.00990687 6.1736021 -0.00901413 C7.87416155 -0.01347081 7.87416155 -0.01347081 9.60907573 -0.01801753 C13.42215178 -0.02671507 17.23519647 -0.02821367 21.04828167 -0.02970505 C23.77639737 -0.03379428 26.50450975 -0.03933632 29.2326231 -0.04475021 C36.65410552 -0.05832863 44.07558254 -0.06435738 51.49707532 -0.06876087 C56.1311414 -0.0715239 60.76520539 -0.07576135 65.39927006 -0.08026505 C78.23006878 -0.09245665 91.06086584 -0.10275645 103.89167023 -0.10614014 C104.71276474 -0.1063597 105.53385925 -0.10657927 106.37983541 -0.10680549 C107.20289033 -0.10702377 108.02594526 -0.10724204 108.87394124 -0.10746694 C110.54175524 -0.1079104 112.20956924 -0.10835697 113.87738323 -0.10880661 C114.70467596 -0.10902804 115.53196869 -0.10924947 116.38433089 -0.10947761 C129.79094861 -0.11342606 143.197512 -0.13088199 156.60410873 -0.15416613 C170.36895238 -0.1778795 184.13376877 -0.19034197 197.89863318 -0.19150805 C205.62692454 -0.19242478 213.35514509 -0.19817651 221.08341694 -0.21632767 C227.66379665 -0.2317284 234.24408364 -0.23684927 240.82447795 -0.22858956 C244.18135172 -0.224683 247.537887 -0.22724492 250.89476299 -0.23964691 C254.53564098 -0.2523104 258.17603831 -0.24651957 261.81691265 -0.23606491 C262.87547791 -0.24412132 263.93404317 -0.25217772 265.02468616 -0.26047826 C270.83857513 -0.22137794 275.09415012 0.22346758 280.18573284 3.13142776 C282.67732324 6.86881336 282.64366569 8.70474359 282.18573284 13.13142776 C280.04893999 16.52082332 279.00825614 17.85725333 275.18573284 19.13142776 C273.60142905 19.2244089 272.01348564 19.26053584 270.42645741 19.26285553 C268.9486466 19.26861725 268.9486466 19.26861725 267.44098103 19.27449536 C266.35588273 19.27362888 265.27078444 19.2727624 264.15280437 19.27186966 C263.00220716 19.27484078 261.85160995 19.2778119 260.66614616 19.28087306 C257.46732487 19.28806008 254.26853626 19.2907329 251.06970811 19.29147053 C247.6217741 19.29332021 244.17385176 19.30086706 240.72592449 19.30760574 C233.18468622 19.3211925 225.64345327 19.32721416 218.1022048 19.3316164 C213.39495798 19.33437794 208.68771322 19.33861511 203.9804678 19.34312057 C190.95154544 19.35531312 177.92262473 19.36561283 164.89369678 19.36899567 C164.05969358 19.36921523 163.22569038 19.3694348 162.36641436 19.36966102 C161.53040062 19.3698793 160.69438689 19.37009757 159.8330394 19.37032247 C158.13891768 19.37076593 156.44479597 19.3712125 154.75067425 19.37166214 C153.91032894 19.37188357 153.06998363 19.372105 152.20417331 19.37233314 C138.58274592 19.3762825 124.96137198 19.39374077 111.33996524 19.41702166 C97.36046058 19.4407221 83.38098275 19.4531969 69.40145767 19.45436358 C61.5502547 19.45528102 53.69912139 19.46105066 45.84793758 19.4791832 C39.16353911 19.49456648 32.47923182 19.49971513 25.79481901 19.49144509 C22.38356114 19.48753241 18.97248702 19.48849806 15.56125164 19.50250244 C11.86488408 19.51513279 8.16899222 19.50939339 4.47262859 19.49892044 C3.39199174 19.50697685 2.31135489 19.51503325 1.19797146 19.52333379 C-7.9730271 19.46231393 -7.9730271 19.46231393 -11.81426716 16.13142776 C-14.3145837 12.38095295 -14.3503027 10.57286511 -13.81426716 6.13142776 C-9.70086941 0.87541954 -6.3935826 0.00949682 0 0 Z " fill="#000000" transform="translate(134.8142671585083,484.8685722351074)"/>
</svg>
